<?xml version="1.0" encoding="UTF-8" standalone="no"?>
<!DOCTYPE svg PUBLIC "-//W3C//DTD SVG 20010904//EN"
              "http://www.w3.org/TR/2001/REC-SVG-20010904/DTD/svg10.dtd">

<svg xmlns="http://www.w3.org/2000/svg"
     width="3.75in" height="3.88889in"
     viewBox="0 0 270 280">
  <path id="Selección"
        fill="#123456" stroke="black" stroke-width="1"
        d="M 68.00,0.00
           C 74.38,0.00 93.13,-0.93 98.00,1.00
             81.73,11.95 80.23,15.48 67.00,28.00
             56.20,10.10 43.24,3.61 23.00,10.35
             18.67,11.80 13.55,13.44 10.64,17.11
             4.60,24.68 5.00,34.93 5.00,44.00
             10.99,38.78 14.31,33.36 22.00,29.90
             24.59,28.74 27.17,28.12 30.00,27.84
             55.35,25.38 54.14,62.90 49.85,79.00
             48.76,83.06 45.05,93.79 41.61,95.98
             39.78,97.15 37.10,96.97 35.00,97.00
             35.00,97.00 33.07,112.00 33.07,112.00
             31.66,115.22 28.62,117.85 25.99,120.08
             13.55,130.57 10.19,126.90 0.00,129.00
             0.00,129.00 0.00,0.00 0.00,0.00
             0.00,0.00 68.00,0.00 68.00,0.00 Z
           M 192.00,115.00
           C 191.82,99.71 181.16,90.51 168.00,84.87
             164.63,83.43 157.57,80.89 154.00,81.50
             147.83,82.56 130.74,96.70 127.00,97.77
             124.46,98.49 121.60,97.44 119.00,97.17
             116.16,96.87 111.03,97.64 109.14,95.43
             107.42,93.43 105.47,80.34 104.92,77.00
             101.51,56.43 101.76,41.54 102.00,21.00
             102.05,17.38 103.14,3.05 105.73,0.99
             107.31,-0.26 111.03,0.00 113.00,0.00
             113.00,0.00 270.00,0.00 270.00,0.00
             270.00,0.00 270.00,280.00 270.00,280.00
             270.00,280.00 0.00,280.00 0.00,280.00
             0.00,280.00 0.00,150.00 0.00,150.00
             3.79,151.82 15.04,159.03 18.00,159.23
             23.78,159.63 31.66,150.07 35.00,146.00
             24.78,142.59 23.98,141.98 15.00,136.00
             21.42,131.83 24.13,133.13 36.00,124.10
             44.65,117.52 47.00,110.07 58.00,110.00
             58.00,110.00 89.00,110.00 89.00,110.00
             91.36,122.93 94.11,135.02 99.78,147.00
             101.19,149.97 104.63,157.71 108.09,158.25
             110.83,158.68 115.54,154.09 121.00,152.00
             121.00,152.00 127.00,165.00 127.00,165.00
             112.99,171.75 92.20,188.15 86.71,203.00
             84.89,207.93 84.95,210.88 85.00,216.00
             85.28,240.23 110.98,263.05 133.00,269.08
             141.02,271.28 146.81,271.15 155.00,271.00
             157.04,270.96 159.05,270.99 160.91,269.98
             160.91,269.98 177.00,252.73 177.00,252.73
             179.01,251.01 182.18,247.77 185.00,248.03
             187.50,248.25 192.02,252.56 194.00,254.28
             197.95,257.71 209.53,267.76 214.00,269.30
             218.77,270.95 221.02,266.00 225.04,262.09
             225.04,262.09 240.00,249.21 240.00,249.21
             241.82,247.77 245.90,245.10 246.43,242.83
             246.81,241.22 245.56,238.56 245.00,237.00
             239.26,238.81 230.41,245.24 225.00,245.40
             218.45,245.60 206.60,233.03 203.00,228.00
             211.26,219.34 220.36,207.04 222.77,195.00
             222.77,195.00 222.77,178.00 222.77,178.00
             222.77,178.00 255.00,182.00 255.00,182.00
             254.12,167.06 256.05,169.19 262.00,157.00
             262.00,157.00 246.00,155.00 246.00,155.00
             246.00,155.00 218.00,155.00 218.00,155.00
             218.00,155.00 200.00,157.00 200.00,157.00
             198.95,167.14 194.41,171.20 189.00,179.00
             205.38,179.80 209.41,193.21 204.18,207.00
             203.11,209.84 199.79,217.77 196.81,218.66
             193.21,219.74 186.31,209.66 184.21,207.00
             184.21,207.00 163.19,177.00 163.19,177.00
             160.18,172.14 156.73,167.49 155.00,162.00
             173.95,152.87 192.26,137.59 192.00,115.00 Z
           M 84.00,48.00
           C 84.00,72.34 83.78,72.62 87.00,97.00
             87.00,97.00 59.00,97.00 59.00,97.00
             61.62,87.83 65.83,85.57 70.00,65.00
             71.30,58.56 71.03,54.46 70.82,48.00
             70.82,48.00 70.82,37.00 70.82,37.00
             71.65,33.08 79.97,24.17 83.00,21.00
             84.88,25.74 84.00,41.98 84.00,48.00 Z
           M 139.45,134.00
           C 136.12,125.78 135.07,120.79 134.74,112.00
             134.66,109.83 134.68,104.28 136.02,102.60
             137.29,101.00 140.11,100.94 142.00,100.76
             147.21,100.27 154.26,101.12 159.00,103.40
             177.93,112.50 176.60,131.79 163.00,144.96
             159.01,148.82 155.20,151.98 150.00,154.00
             146.52,148.65 141.84,139.90 139.45,134.00 Z
           M 113.00,111.00
           C 113.00,111.00 112.00,112.00 112.00,112.00
             112.00,112.00 112.00,111.00 112.00,111.00
             112.00,111.00 113.00,111.00 113.00,111.00 Z
           M 148.00,248.68
           C 133.91,246.32 116.57,230.19 111.71,217.00
             109.93,212.17 109.44,205.07 110.33,200.00
             111.44,193.63 116.75,186.63 121.09,182.00
             124.84,178.00 127.93,175.16 133.00,173.00
             138.36,185.37 155.43,210.91 163.88,222.00
             163.88,222.00 178.00,240.00 178.00,240.00
             168.90,246.64 159.45,250.59 148.00,248.68 Z" />
</svg>
